<svg width="893" height="296" viewBox="0 0 893 296" fill="none" xmlns="http://www.w3.org/2000/svg">
	<path d="M250.3 142.2C253.2 154.1 252.3 165 250.5 173.6C249.1 168.8 246.9 163 243.5 157C236.3 144.2 227 136.1 220.7 131.5C245.5 162 254 196.9 240.7 220.5C238.1 225.2 233.8 230.7 226.7 235.9C230.6 230.5 236.7 220.6 239 206.9C240.2 199.5 240 193.1 239.5 188.1C213.9 177.2 204.3 161.2 201 154.9C196.4 145.9 194.1 135.7 193.3 132.1C191 122.2 191.1 116.6 188.7 99C187.7 91.6 186.7 85.5 186 81.7C190.2 83 240 98.9 250.3 142.2Z" fill="#27AC4A"/>
	<path d="M251.4 184.8C252.4 179 254.8 171.1 260.6 163.4C277.6 140.6 308.5 141.8 312 142C310.8 144.1 309 147.2 306.9 150.9C296.5 169 294.4 174.8 291.2 179.4C286.3 186.4 276.3 194.1 253.5 196.5C253.233 197.767 252.833 199.067 252.3 200.4C251 203.8 249.4 206.7 247.9 209C248.6 206.5 249.1 203.7 249.4 200.5C249.667 198.233 249.8 196.167 249.8 194.3C251.8 189.9 255.4 183.9 261.1 178C267.1 171.6 273.3 167.7 277.7 165.4C273.8 166.7 268.2 169 262.4 173.4C257.1 177.4 253.6 181.7 251.4 184.8Z" fill="#81C258"/>
	<path d="M174.1 143.9C165.8 140.8 157.4 139.1 149.4 138.8C145.1 115.6 135.9 112.4 131.6 87.3C129.8 76.5 128.3 66.7 131.9 56.5C132.033 57.3 132.2 58.1333 132.4 59C133.9 63.9 137.2 66.8 138.3 67.6C147.3 75 157.4 68.3 168.8 74.8C170.9 76 172.7 77.5 174.1 78.9C173.8 80.3 174 81.9 174.7 83.3C176.2 86.5 177.7 90.4 178.9 94.9C184 114.5 178.9 132.1 174.1 143.9Z" fill="#17151B"/>
	<path d="M146.5 138.7C144.033 138.767 141.667 138.933 139.4 139.2C128.9 119.9 114.2 108.6 112.3 87.2C111.1 74 115.5 67.4 116.9 65.5C120.7 60.3 125.8 57.8 129.1 56.5C127.5 62.9 127 68.1 126.9 71.2C125.7 98 140.4 113.3 146.5 138.7Z" fill="#3A3D3F"/>
	<path d="M160.6 32.1001C155.3 32.5001 150.9 34.4 147.1 36.9C148.8 24.1 159.7 14.3 173 14.3C187.3 14.3 199 25.9 199 40.3C199 49.3 194.5 57.1 187.7 61.8C187.3 61.6 186.9 61.4 186.4 61.3C188 55.4 187.4 48.9 184.1 43.4C176.9 31.1 161.4 32.0001 160.6 32.1001Z" fill="#E72829"/>
	<path d="M191.6 71.6001C188.9 68.6001 186.1 66.9 183.9 67.2C184.7 65.8667 185.367 64.4334 185.9 62.9C186.1 62.3667 186.267 61.8334 186.4 61.3C186.9 61.4 187.3 61.6 187.7 61.8C189.7 63.1 191.3 66.7001 191.6 71.6001Z" fill="#FCCD3A"/>
	<path fill-rule="evenodd" clip-rule="evenodd" d="M186.4 61.2999C186.267 61.8333 186.1 62.3666 185.9 62.8999C185.367 64.4333 184.7 65.8666 183.9 67.1999C183.4 67.9999 182.9 68.8 182.4 69.6C180.7 71.7 178.8 73.1999 177.1 74.3999C175.4 75.3999 174.4 77.0999 174.1 78.8999C172.7 77.4999 171 75.9999 168.8 74.7999C157.4 68.2999 147.3 75 138.3 67.6C137.2 66.8 133.9 63.8999 132.4 58.9999C132.2 58.1333 132.033 57.3333 131.9 56.6C132.4 55.3 132.9 53.9999 133.6 52.6999C134.5 50.7999 139 42.3999 147.1 36.8999C150.9 34.3999 155.3 32.5 160.6 32.1C161.4 32 176.9 31.0999 184.1 43.3999C187.4 48.8999 188 55.3999 186.4 61.2999ZM173 53.3999C173 50.6999 170.8 48.6 168.1 48.6C165.5 48.6 163.3 50.6999 163.3 53.3999C163.3 56.0999 165.5 58.1999 168.1 58.1999C170.8 58.1999 173 56.0999 173 53.3999Z" fill="#EA4D31"/>
	<path fill-rule="evenodd" clip-rule="evenodd" d="M163.3 53.4001C163.3 50.7001 165.5 48.6001 168.1 48.6001C170.8 48.6001 173 50.7001 173 53.4001C173 56.1001 170.8 58.2001 168.1 58.2001C165.5 58.2001 163.3 56.1001 163.3 53.4001ZM165.7 53.4001C165.7 54.8001 166.8 55.9001 168.1 55.9001C169.5 55.9001 170.6 54.8001 170.6 53.4001C170.6 52.0001 169.5 50.9001 168.1 50.9001C166.8 50.9001 165.7 52.0001 165.7 53.4001Z" fill="#FEFEFE"/>
	<path d="M165.7 53.3999C165.7 51.9999 166.8 50.8999 168.1 50.8999C169.5 50.8999 170.6 51.9999 170.6 53.3999C170.6 54.7999 169.5 55.8999 168.1 55.8999C166.8 55.8999 165.7 54.7999 165.7 53.3999Z" fill="#17151B"/>
	<path fill-rule="evenodd" clip-rule="evenodd" d="M118.3 158.6C129.3 141.1 161.4 141.4 189.9 159.3C218.4 177.3 232.6 206 221.6 223.5C210.6 241.1 178.5 240.8 150 222.9C121.5 205 107.2 176.2 118.3 158.6ZM213.3 208C215.5 209.5 217.2 210.8 218.1 211.6C211 198.3 202.8 192.2 196.9 189.1C174.6 177.6 150.6 190.4 129.6 173.9C127.2 172 125.4 170.2 124.4 169.1C128.4 179.9 134 185.5 138.2 188.6C158.6 203.8 185.8 189.3 213.3 208Z" fill="#745338"/>
	<path d="M251.1 44.9001C251.1 48.8001 249.7 52.3001 247.6 55.1001C246.533 56.4334 245.333 57.6001 244 58.6001C242.6 59.6001 241.1 60.5001 239.5 61.1001C236.5 62.2001 233.9 62.3001 231.9 62.2001C229.7 62.2001 228.2 61.8001 227.5 61.6001C227.5 59.6001 227.5 55.0001 230.2 50.7001C232.1 47.7001 234.9 45.6001 238.6 44.4001C242.4 43.1001 246.6 43.5001 251.1 44.9001Z" fill="#F7962D"/>
	<path d="M221.4 34C222.9 35.4 224.2 37 225 38.7C226.8 42.2 227.3 45.8 226.5 49.2C225.3 54.2 222.1 57.4 220.7 58.7C220.1 58.4 218.7 57.5 217.2 56.1C215.6 54.8 213.9 52.7999 212.6 49.8999C211.3 46.6999 210.7 43.3999 211.1 39.8999C211.6 36.4999 213.1 33 215.9 30.2C218 31.3 219.8 32.6 221.4 34Z" fill="#EE5041"/>
	<path d="M285.5 81.6C283.7 85 280.8 87.5 277.7 89C274.5 90.4 271.1 90.9 267.7 90.6C264.6 90.2 262.2 89.1 260.4 88C258.6 87 257.4 85.9 256.9 85.4C257.8 83.7 259.9 79.7 264.3 77C267.3 75.3 270.9 74.7 274.7 75.4C278.6 76 282.1 78.3 285.5 81.6Z" fill="#7EC359"/>
	<path d="M264.2 58.2C264.9 60.2 265.3 62.1001 265.3 64.1001C265.2 67.9001 264 71.3 261.7 74C258.3 77.8 254 79.2 252.1 79.7C251.7 79.2 251 77.7 250.2 75.8C249.4 73.9 248.8 71.3001 249.1 68.1001C249.4 64.7001 250.4 61.5 252.4 58.7C254.4 55.9 257.4 53.5 261.2 52.3C262.5 54.2 263.5 56.2 264.2 58.2Z" fill="#F3EC4A"/>
	<path d="M298.9 130.1C292.4 134.6 284.5 133.5 278.9 129.7C276.3 128 274.8 125.9 273.7 124.1C272.5 122.3 272 120.8 271.8 120.2C273.4 119.1 277.1 116.5 282.2 116.2C285.7 116 289.1 117.2 292.2 119.6C295.3 121.9 297.5 125.6 298.9 130.1Z" fill="#544CA0"/>
	<path d="M290.9 99.4999C290.7 101.6 290.1 103.4 289.1 105.2C287.3 108.6 284.6 111 281.4 112.3C276.6 114.1 272.1 113.3 270.2 112.9C270.1 112.3 270.1 110.6 270.4 108.5C270.6 106.5 271.2 103.9 272.9 101.3C274.8 98.3999 277.1 95.9999 280.3 94.3999C283.3 92.7999 287.1 92.0999 291 92.7999C291.3 95.1999 291.2 97.3999 290.9 99.4999Z" fill="#378DCB"/>
	<path d="M287.3 194.3C285.4 199.4 283.6 204.5 281.5 209.5C277.8 217.9 273 225.8 267.6 233.3C260.6 243.167 252.533 252.033 243.4 259.9C237.533 264.967 231.267 269.567 224.6 273.7C213.5 280.4 201.9 285.8 189.5 289.3C183.5 290.9 177.4 292.1 171.3 293.3C162.9 294.9 154.5 295.4 146 295.2C138.333 295.133 130.7 294.5 123.1 293.3C113.8 291.7 104.7 289.2 95.8999 285.9C87.7999 282.9 80.0999 279.2 72.6999 274.8C64.6999 270.1 57.0999 264.6 50.1999 258.3C46.8999 255.2 43.5999 252.2 40.4999 248.9C33.1999 241.1 26.6999 232.5 21.0999 223.2C15.7999 214.2 11.4999 204.8 8.09988 194.8C2.59988 178.5 0.199877 161.7 0.599877 144.5C0.899877 133.6 2.29988 122.8 4.99988 112.2C7.29988 103 10.3999 94.1 14.3999 85.5C18.2999 77.2 22.8999 69.3 28.3999 61.9C31.2999 58.1 34.0999 54.2 37.1999 50.6C39.9999 47.4 43.0999 44.5 46.0999 41.5C51.7999 36 57.8999 31 64.3999 26.6C67.9999 24.2 71.6999 22 75.4999 19.8C78.2332 18.2 80.9999 16.7 83.7999 15.3C86.1999 14.2 88.5999 13.1 91.0999 12.2C94.8999 10.7 98.6999 9.09998 102.6 7.79998C106.5 6.59998 110.6 5.69998 114.6 4.69998C118.2 3.89998 121.8 3.09999 125.4 2.59999C129.3 1.89999 133.3 1.39998 137.4 1.19998C141.9 0.799979 146.6 0.699985 151.2 0.799985C159.1 0.999985 167 1.59998 174.8 3.39998C179.3 4.39998 183.8 4.99998 188.1 6.39998C195.3 8.69998 202.5 11.5 209.5 14.4C213.8 16.2 217.8 18.6 221.9 20.9C225.1 22.7 228.1 24.8 231.2 26.7C232.2 27.4 233.3 28 234.4 28.7C230.7 27.3 226.5 26 222 24.9C221.8 24.8333 221.6 24.7666 221.4 24.7C214.5 22.9 207.3 21.7 199.9 21.3C193.9 12.8 184 7.29998 172.9 7.29998C157.2 7.29998 143.7 18.5 140.6 33.7C104.7 52.5 80.0999 90.1 80.0999 133.5C80.0999 195.6 130.5 246 192.6 246C197.467 246 202.233 245.7 206.9 245.1C202.2 247.7 197.3 250.1 192.2 252.2C188.5 253.7 184.7 255.2 180.9 256.2C179 256.7 176.9 256.3 174.9 255.8C162.7 253.2 151.3 248.4 141.2 240.9C138.3 238.7 135.7 236.1 132.8 233.7C133 235.3 134.1 236.1 135.1 237.1C136.6 238.5 137.8 240.4 139.3 241.8C146.4 248.7 154.7 253.8 163.7 257.9C164.8 258.4 165.9 259 167 259.8C165.2 260.1 163.3 260.5 161.4 260.6C155.267 260.867 149.133 261.067 143 261.2C141.4 261.2 139.8 261 138.2 260.7C137.4 260.5 136.5 260.2 135.9 259.7C130.4 255 125.7 249.7 121.9 243.6C119.3 239.4 116.8 235 114.4 230.6C113.3 228.7 112.4 226.7 111.3 224.4C111.8 227.8 113.1 230.7 114.3 233.6C115.5 236.6 116.8 239.6 118.2 242.4C119.7 245.3 121.2 248.1 122.9 250.8C124.7 253.6 126.7 256.1 128.8 259.1C126.8 258.6 125.1 258.3 123.5 257.8C119 256.1 114.5 254.4 110.1 252.6C109 252.1 107.9 251.2 107.1 250.1C99.7999 240.3 95.0999 229.2 92.3999 217.3C91.9999 215.6 91.6999 213.8 91.1999 212.1C91.1332 211.767 90.8665 211.467 90.3999 211.2C90.5999 223.8 94.2999 235.5 99.5999 246.7C99.4666 246.833 99.3665 246.933 99.2999 247C96.8999 245.4 94.2999 243.9 91.9999 242.1C88.0999 239.2 84.2999 236.1 80.4999 233.1C78.4999 231.6 77.7999 229.5 77.1999 227.3C75.1999 220.2 74.4999 212.9 74.6999 205.5C74.7999 204 74.8999 202.4 74.9999 200.8C74.9999 200.2 74.7999 199.5 74.6999 198.4C72.7999 202.4 72.4999 215.3 73.9999 225.9C72.9999 225 71.8999 224.2 71.1999 223.1C67.6999 217.9 64.2999 212.6 60.8999 207.3C60.3999 206.4 60.0999 205.4 60.0999 204.4C59.5999 198.6 59.5999 192.7 60.4999 187C61.0999 182.8 62.0999 178.7 62.8999 174.5C62.9999 173.7 62.8999 172.8 62.7999 172C59.0999 180.4 57.5999 189.2 56.9999 198.3C56.8665 198.3 56.7332 198.333 56.5999 198.4C55.4999 195.7 54.2999 193 53.3999 190.3C51.9999 186 50.6999 181.7 49.4999 177.4C48.2999 173.3 48.5999 169 49.3999 164.9C50.2999 160.4 51.4999 156 52.7999 151.6C53.1999 149.9 54.3999 148.3 55.1999 146.7C55.8999 145.3 56.4999 143.9 57.1999 142.6C58.8999 139.6 60.4999 136.6 61.9999 133.5C55.2999 142.4 49.8999 152 46.5999 162.8C46.3999 161.3 45.9999 159.7 45.8999 158.1C45.4999 151.8 45.1999 145.4 44.9999 139C44.8999 137.1 45.2999 135.1 45.8999 133.2C48.0999 126.9 51.2999 121 54.5999 115.1C58.2999 108.8 62.9999 103.4 67.9999 98.2C68.2999 97.9 68.4999 97.6 68.4999 97.1C58.4999 104.9 51.3999 115 45.6999 126.2C45.6332 126.133 45.5332 126.1 45.3999 126.1C45.7999 122.2 46.1999 118.3 46.8999 114.5C47.6999 109.7 48.6999 105 49.8999 100.3C50.8999 96.2 53.3999 93 55.7999 89.7C57.6999 87.3 59.6999 84.9 61.7999 82.3C61.3999 82.5 61.1999 82.4 61.0999 82.6C58.9999 84.8 56.8999 87 54.7999 89.3C54.1999 90 53.6999 90.8 53.0999 91.6C52.9665 91.4667 52.8332 91.3667 52.6999 91.3C52.6999 91.1 52.6999 90.9 52.6999 90.7C54.9999 85.3 57.1999 79.7 59.6999 74.3C61.1999 71 62.9999 67.8 65.1999 64.9C66.7999 62.8 69.2999 61.3 71.3999 59.6C71.7332 59.4 72.0665 59.2 72.3999 59L80.9999 53.3L82.7999 52.2L90.0999 47.3L79.6999 53.4C79.4999 53.5333 79.3332 53.6333 79.1999 53.7L76.1999 55.5C74.6999 56.2 73.1999 57.1 71.7999 58C70.7999 58.7 69.7999 59.3 68.7999 59.9C68.9999 58 78.1999 47.4 85.1999 41L88.8999 37.9L89.1999 37.7C91.1999 36.1 93.2999 34.6 95.3999 33.1C97.1999 31.9 99.2999 31 100.9 29.6C101.7 29 102.6 28.7 103.5 28.4L120.4 26.4L106.6 26.8C108.5 24.9 111.7 24.3 114.4 23.1C115.733 22.5 117.1 21.9 118.5 21.3C118.4 21.2 118.4 21 118.3 20.9C107.6 24.6 97.6999 29.8 88.2999 36.4V36.3V36.2L95.3999 23.5L86.0999 37.8H86.1999C85.8665 38.1333 85.5332 38.5 85.1999 38.9C84.8999 39.2 84.6999 39.5 84.3999 39.8L84.1999 39.9C83.3999 40.7 82.5665 41.4666 81.6999 42.2C75.3999 47.5 70.3999 53.9 65.4999 60.5C64.0999 62.4 62.8999 64.5 61.3999 66.8C60.2999 60.6 60.6999 54.8 61.5999 48.9C60.0999 53.1 59.5999 57.3 59.6999 61.6C59.7999 63.9 59.9999 66.2 59.7999 68.5C59.6999 69.7 58.8999 70.9 58.3999 72.1C55.9999 77.3 53.5999 82.5 51.1999 87.7C50.9999 88.1 50.7999 88.5333 50.5999 89C50.3999 89 50.2999 89 50.0999 89C48.8999 85.7 47.6999 82.4 46.3999 79C46.0999 79.4 45.9999 79.5 45.9999 79.6C46.7999 82.5 47.1999 85.7 48.4999 88.3C49.7999 90.9 49.2999 93 48.4999 95.2C46.1999 102 44.5999 109.1 43.3999 116.2C43.1999 117.1 43.0999 118 42.8999 119.2L29.7999 99.2L42.4999 123.2C42.3999 124.2 42.1999 125.1 42.0999 126C41.3999 134.1 40.8999 142.2 41.4999 150.3C41.5999 151.4 41.4999 152.6 41.4999 154.1C40.0999 152.6 38.8999 151.3 37.7999 149.9C34.2999 145.6 30.8999 141.2 27.3999 136.9C26.9999 136.4 26.2999 136 25.5999 135.7C28.0999 141.1 31.5999 145.9 35.0999 150.6C37.1999 153.3 39.5999 155.8 41.3999 158.7C42.2999 160.2 42.3999 162.3 42.7999 164.2C44.1999 170.7 45.3999 177.3 46.8999 183.9C47.3999 186.3 48.1999 188.7 48.7999 191.1C48.6999 191.3 48.4999 191.4 48.3999 191.5C45.9332 189.367 43.4332 187.267 40.8999 185.2L40.7999 185.1L34.1999 179C33.1999 178 32.4999 177.4 31.3999 176.4L24.6999 170.3L32.3999 179.4C32.3999 179.467 32.4332 179.5 32.4999 179.5L34.3999 181.8C38.7999 186.4 43.1999 191.1 48.4999 194.8C49.9999 195.8 51.1999 197 51.7999 198.8C54.4999 206 58.1999 212.8 62.1999 219.3C62.5999 220.1 63.1999 220.7 63.4999 221.6C52.9999 218.5 43.9999 212.7 35.4999 205.5C38.0999 210 41.7999 212.7 45.6999 215.3C48.4999 217.2 51.1999 219.2 54.1999 220.7C57.8999 222.5 61.7999 223.9 65.5999 225.6C66.3999 225.9 67.0999 226.3 67.5999 226.9C71.8999 232.1 76.3999 237.1 81.5999 241.3C82.3999 242 83.2999 242.6 83.8999 243.4C79.1999 243.9 74.5999 243.5 69.9999 242.8C65.3999 242 60.8999 241 56.2999 240.1C56.2332 240.233 56.1999 240.4 56.1999 240.6C56.5332 240.8 56.8999 240.967 57.2999 241.1C67.1999 245.8 77.7999 247.7 88.6999 248.1C89.6999 248.2 90.8999 248.6 91.7999 249.2C97.3999 252.7 103 256.4 109.2 259C112.6 260.4 116 261.9 119.6 263.5C118.1 263.8 116.8 264.1 115.5 264.3C108.9 264.9 102.2 265.6 95.4999 266.1C92.3999 266.3 89.1999 265.9 85.9999 265.8C85.2999 265.8 84.5999 265.9 83.7999 266C83.8665 266.2 83.8999 266.4 83.8999 266.6C85.2999 266.8 86.6999 267.2 88.0999 267.3C95.0999 267.9 102 268.8 109 268.2C115.9 267.7 122.8 266.9 129.7 266.3C130.3 266.2 130.9 266.3 131.5 266.4C139.233 267.933 147.033 268.567 154.9 268.3C155.2 268.3 155.5 268.3 155.9 268.5C147.5 274.6 138.1 278.4 128.1 280.9C128.1 281.033 128.1 281.2 128.1 281.4C131.3 281 134.5 280.8 137.6 280.2C146.7 278.5 155.2 275.1 163.2 270.4C164.8 269.5 166.3 268.4 167.9 267.6C169 267 170.3 266.5 171.6 266.3C178.5 265.1 185.3 263.2 191.8 260.6C198.4 257.9 204.8 254.7 211.4 251.8C211.6 251.7 211.9 251.6 212.3 251.6C208 257.3 202.9 262.3 197.4 266.7C192 271.033 186.167 274.733 179.9 277.8C179.767 277.867 179.633 277.933 179.5 278C178.1 278.667 176.6 279.333 175 280C174.467 280.267 173.933 280.5 173.4 280.7C171.333 281.5 169.3 282.233 167.3 282.9C169.8 282.4 172.4 281.8 175.3 280.8C175.633 280.733 175.967 280.633 176.3 280.5C177.9 279.967 179.4 279.4 180.8 278.8C183.6 277.7 186.4 276.7 189 275.4C195.4 272 201.6 268.4 207.1 263.8C212.9 259 218.6 254.1 222.9 247.8C225.6 243.8 229.3 241.1 233.1 238.5C255.5 229.8 274.5 214.2 287.3 194.3Z" fill="#27AC4A"/>
	<path d="M323.9 132V81C323.9 69.4 333.5 58.8 346.7 58.8C360.5 58.8 370.1 66.3 370.1 78.9C370.1 85.3 367.8 90.3 362.9 93.4C370.2 97.6 373.4 103 373.4 111.6C373.4 124.1 364.2 132 351.8 132H337.3V122.9H349.3C359.6 122.9 363.7 118.6 363.7 111.1C363.7 103.3 358.5 99.3 349.3 99.3H337.3V90.2H347.4C356.1 90.2 360.4 85.2 360.4 79.3C360.4 71.7 354.5 67.8 347.6 67.8C338.6 67.8 333.6 73.4 333.6 81.8V132H323.9ZM381.6 132V60H391.2V132H381.6Z" fill="#2C2E35"/>
	<path fill-rule="evenodd" clip-rule="evenodd" d="M321.9 227V181.3C321.9 164.3 332.4 153.8 346.4 153.8C360.4 153.8 371 164.3 371 181.3V227H361.4V194.3H335.4V185.2H361.4V180.7C361.4 169.4 355.3 162.8 346.4 162.8C337.6 162.8 331.5 169.4 331.5 180.7V227H321.9ZM380.2 227V179.5C380.2 163.3 389.9 153.8 404.1 153.8C417.4 153.8 426.3 163.1 426.3 174.2C426.3 181.1 424 186.7 418 190.3C424.2 192.8 427.6 196.5 427.6 206.9V227H417.9V207.3C417.9 200.2 413.8 195.5 404.8 195.5H394.1V186.5H401.7C410.3 186.5 416.6 182.6 416.6 174.5C416.6 167.4 410.7 162.8 404.1 162.8C395.8 162.8 389.9 168.4 389.9 176.7V227H380.2ZM481.1 164.1H474.5C458.1 164.1 445.9 175.6 445.9 191C445.9 209.7 460.2 217.9 470.8 217.9H481.1V227H470.8C450.8 227 435.9 211.6 435.9 191C435.9 173.5 450.1 155 473.5 155H481.1V164.1ZM523.7 153.8C544 153.8 561.3 170.3 561.3 191.1C561.3 211.8 544 228.3 523.7 228.3C503.3 228.3 486 211.8 486 191.1C486 170.3 503.3 153.8 523.7 153.8ZM523.7 219.2C539.6 219.2 551.2 206.4 551.2 191.1C551.2 175.7 539.6 162.9 523.7 162.9C507.7 162.9 496.1 175.7 496.1 191.1C496.1 206.4 507.7 219.2 523.7 219.2ZM570.3 227V155.1H579.9V227H570.3ZM591.7 227V179.5C591.7 163.4 601.4 153.8 615.6 153.8C628.9 153.8 637.8 163.2 637.8 174.3C637.8 181.2 635.4 186.7 629.5 190.3C635.7 192.8 639 196.5 639 207V227H629.4V207.3C629.4 200.2 625.3 195.6 616.3 195.6H605.6V186.5H613.2C621.8 186.5 628.1 182.6 628.1 174.6C628.1 167.5 622.2 162.9 615.6 162.9C607.3 162.9 601.4 168.4 601.4 176.8V227H591.7ZM650.3 227V155.1H660V227H650.3ZM669 218H693.7C702.2 218 705.7 214.9 705.7 208.6C705.7 193.9 669.5 194.5 669.5 173.2C669.5 161.4 678 155.1 689.3 155.1H712.2V164.1H687.9C682.6 164.1 679.2 167.1 679.2 172.6C679.2 185.9 715.4 185.9 715.4 207.8C715.4 219.3 708.2 227 695.4 227H669V218ZM751.7 227.1V179.6C751.7 163.4 761.4 153.9 775.6 153.9C788.8 153.9 797.8 163.2 797.8 174.3C797.8 181.2 795.4 186.8 789.5 190.4C795.6 192.9 799 196.6 799 207V227.1H789.4V207.4C789.4 200.3 785.2 195.6 776.3 195.6H765.6V186.6H773.2C781.7 186.6 788.1 182.7 788.1 174.6C788.1 167.5 782.2 162.9 775.6 162.9C767.2 162.9 761.4 168.5 761.4 176.8V227.1H751.7ZM818 215.6C821.3 215.6 824.1 218.3 824.1 221.6C824.1 225 821.3 227.7 818 227.7C814.7 227.7 811.9 225 811.9 221.6C811.9 218.3 814.7 215.6 818 215.6ZM848.6 155.1V201.5C848.6 212.6 853.1 218 863.2 218H872.5V227.1H861.7C847.8 227.1 838.9 217.4 838.9 203.9V155.1H848.6ZM886.6 215.6C889.9 215.6 892.7 218.3 892.7 221.6C892.7 225 889.9 227.7 886.6 227.7C883.4 227.7 880.6 225 880.6 221.6C880.6 218.3 883.4 215.6 886.6 215.6Z" fill="#2C2E35"/>
	<path d="M429.7 101.7V122.2H424.1V101.7H415.6L421.2 85.4002L426.9 69.2002L432.6 85.4002L438.2 101.7H429.7Z" fill="#27AC4A"/>
	<path d="M454.2 101.7V122.2H448.6V101.7H440.1L445.7 85.4002L451.4 69.2002L457.1 85.4002L462.7 101.7H454.2Z" fill="#27AC4A"/>
	<path fill-rule="evenodd" clip-rule="evenodd" d="M475.3 96.0001C475.3 116.1 459 132.4 438.9 132.4C418.8 132.4 402.5 116.1 402.5 96.0001C402.5 75.9001 418.8 59.6001 438.9 59.6001C459 59.6001 475.3 75.9001 475.3 96.0001ZM471.5 96.0001C471.5 78.0001 456.9 63.4001 438.9 63.4001C420.9 63.4001 406.3 78.0001 406.3 96.0001C406.3 114.1 420.9 128.7 438.9 128.7C456.9 128.7 471.5 114.1 471.5 96.0001Z" fill="#27AC4A"/>
	</svg>
	